<svg width="94" height="41" viewBox="0 0 94 41" fill="none" xmlns="http://www.w3.org/2000/svg">
<path d="M3.18145 0.083725C1.75137 0.32724 0.535491 1.35666 0.125998 2.65725L0 3.07234L0.0188997 20.0355C0.0314995 36.2515 0.0377994 37.0097 0.151198 37.3252C0.314995 37.8012 0.705589 38.4376 1.04578 38.7808C2.29316 40.0371 4.73122 40.751 8.31587 40.9226L9.04036 40.9558L8.30957 40.6569C7.30788 40.2474 6.88579 39.9817 6.0794 39.2678C4.79422 38.1332 3.92484 36.7662 3.46494 35.1723C3.03025 33.6724 2.99875 32.2944 3.34525 30.7502C3.71064 29.1397 4.67453 27.4074 5.9534 26.0625C6.4511 25.5423 7.37088 24.7564 8.03237 24.2915C9.31755 23.3949 11.4658 22.3268 12.814 21.9117C14.9119 21.2752 16.8837 21.1479 18.8682 21.5298C19.3218 21.6128 21.1551 22.1275 21.7662 22.3323C21.8733 22.371 21.867 22.3434 21.7095 22.0999C21.1551 21.2531 20.1282 20.2846 19.1832 19.72C17.4696 18.6962 15.6238 18.2423 13.3243 18.2866C12.1336 18.3087 11.5981 18.3696 10.4578 18.6242C9.99164 18.7294 9.58845 18.8124 9.56325 18.8124C9.53805 18.8124 9.50655 15.2094 9.50025 10.7985L9.48135 2.79008L9.34275 2.46908C9.07816 1.85476 8.79466 1.46734 8.31587 1.04119C7.73628 0.532017 7.04959 0.205482 6.281 0.0781898C5.64471 -0.0269661 3.79884 -0.0269661 3.18145 0.083725Z" fill="#00743F"/>
<path d="M52.6865 4.79907C52.0691 4.99278 51.6596 5.31931 51.4076 5.82295C51.269 6.08861 51.1556 6.8413 51.1556 7.4501C51.1556 7.73236 51.1304 7.85412 51.08 7.85965C50.6767 7.88179 50.3869 7.99248 50.1664 8.19726C49.9585 8.39097 49.8955 8.59574 49.8955 9.06064C49.8955 9.39825 49.927 9.53107 50.0404 9.70818C50.1979 9.96277 50.62 10.1786 50.9477 10.1786H51.1493L51.1682 13.3167L51.1871 16.4603L51.3635 16.7757C51.5525 17.1189 51.9494 17.4011 52.3211 17.462C52.4282 17.4786 52.9322 17.4842 53.43 17.4731C54.3246 17.4565 54.3561 17.451 54.6585 17.2905C54.879 17.1687 55.0176 17.0359 55.1562 16.82L55.3453 16.5156L55.3642 13.3443L55.3831 10.1786H55.7737C56.4982 10.1786 56.9518 9.86314 57.04 9.29862C57.1786 8.36883 56.6746 7.85412 55.6288 7.85412H55.3768V7.58293C55.3768 7.4335 55.4083 7.23979 55.4398 7.1623C55.5595 6.89111 55.528 6.24911 55.3768 5.90597C55.2003 5.48535 54.7782 5.08686 54.3246 4.89316C53.8332 4.69391 53.1528 4.64964 52.6865 4.79907Z" fill="#00743F"/>
<path d="M60.6682 7.74883C59.4523 7.86505 58.3561 8.21373 57.9718 8.60116C57.7198 8.85022 57.6379 9.12141 57.6379 9.74129C57.6379 10.328 57.745 10.577 58.0852 10.7763C58.2805 10.8925 58.3561 10.9036 58.7782 10.8814C59.0365 10.8704 59.509 10.7873 59.8177 10.7043C60.4162 10.5493 61.2982 10.4663 61.7014 10.5327C62.0668 10.5936 62.4133 10.9036 62.4952 11.2467C62.6464 11.8168 62.6779 11.7946 61.4872 11.9109C59.7421 12.0769 58.8475 12.3426 58.1797 12.896C57.4048 13.5436 57.0835 14.6505 57.3544 15.774C57.5749 16.6817 58.1734 17.2684 59.1751 17.5562C59.7295 17.7112 61.0399 17.7222 61.5691 17.5728C62.0794 17.4234 62.5456 17.1245 62.8417 16.7426L63.0937 16.4216L63.1756 16.6098C63.5158 17.3403 64.549 17.7665 65.7963 17.689C66.7476 17.6281 67.3587 17.3514 67.617 16.8644C67.8186 16.488 67.8753 16.1172 67.7871 15.7408C67.7115 15.4088 67.491 15.1984 67.1634 15.132C67.0626 15.1154 66.9303 15.049 66.8673 14.9826C66.7539 14.8774 66.7476 14.7114 66.7161 12.5916C66.6783 10.328 66.6783 10.3169 66.5145 9.89073C66.105 8.81701 65.2357 8.15285 63.8623 7.84845C63.2575 7.71562 61.5439 7.66027 60.6682 7.74883ZM62.5456 14.0915C62.5078 14.9106 62.3503 15.1597 61.8652 15.1597C61.4494 15.1597 61.2352 14.9106 61.2352 14.4402C61.2352 13.8148 61.5691 13.5159 62.2999 13.5048L62.5771 13.4993L62.5456 14.0915Z" fill="#00743F"/>
<path d="M73.5127 7.76557C72.8764 7.915 72.322 8.34669 71.9188 9.01637L71.7109 9.35951L71.6353 9.03297C71.5975 8.85587 71.503 8.61235 71.4211 8.49059C70.9423 7.74897 69.2224 7.64935 68.5484 8.33009C68.1641 8.71197 68.1641 8.73411 68.1641 12.6968C68.1641 16.6152 68.1641 16.6208 68.5106 17.0248C68.6051 17.13 68.8319 17.2794 69.0083 17.3513C69.298 17.4731 69.4177 17.4842 70.2115 17.4842C71.2447 17.4842 71.4841 17.4344 71.8306 17.1632C72.3283 16.7702 72.322 16.82 72.322 14.1579V11.7947L72.5299 11.529C72.7567 11.2302 73.2166 10.9313 73.582 10.8428C73.7143 10.8095 74.0608 10.7597 74.3506 10.7265C74.9617 10.6601 75.1066 10.5937 75.2956 10.2727C75.4279 10.0624 75.4405 9.9683 75.4405 9.21008C75.4405 8.42971 75.4279 8.3633 75.2893 8.14745C75.0814 7.82645 74.7475 7.68809 74.2057 7.69362C73.9852 7.69362 73.6702 7.72683 73.5127 7.76557Z" fill="#00743F"/>
<path d="M82.0624 7.77133C81.4072 7.92076 80.9032 8.17534 80.3425 8.65683L79.8259 9.09958L79.7629 8.87821C79.6117 8.34691 79.1455 7.99271 78.4715 7.90416C77.5832 7.7824 76.8461 8.03145 76.5311 8.56828L76.3547 8.86161V12.6914C76.3547 16.9971 76.3295 16.7536 76.8461 17.1632C77.1926 17.4344 77.432 17.4842 78.4652 17.4842C79.2589 17.4842 79.3786 17.4731 79.6684 17.3513C79.996 17.2185 80.2417 16.9861 80.3992 16.6817C80.4622 16.5544 80.4874 15.8847 80.5126 13.837L80.5441 11.1584L80.7772 10.9923C80.9284 10.8872 81.1048 10.8208 81.2875 10.8042C81.5332 10.7765 81.5773 10.7931 81.697 10.9259C81.8356 11.0754 81.8356 11.0975 81.8356 13.6986C81.8356 15.9622 81.8482 16.3551 81.9364 16.5821C82.0813 16.9584 82.3018 17.1853 82.6861 17.3458C83.0074 17.4897 83.0515 17.4897 84.0217 17.4731C85.0171 17.4565 85.0297 17.4565 85.3383 17.2905C85.5714 17.1576 85.6911 17.0414 85.836 16.7924L86.025 16.4658L86.0565 13.8149L86.088 11.1584L86.3148 10.9979C86.4471 10.9038 86.655 10.8208 86.7999 10.8042C87.0141 10.7765 87.0771 10.7986 87.2157 10.9149L87.3795 11.0588V13.682C87.3795 16.5322 87.3921 16.6319 87.726 17.0248C87.8205 17.13 88.0473 17.2794 88.2237 17.3513C88.5135 17.4731 88.6332 17.4842 89.427 17.4842C90.4602 17.4842 90.6996 17.4344 91.0461 17.1632C91.5563 16.7592 91.5374 16.9197 91.5374 13.2338C91.5437 10.4887 91.5248 9.90207 91.4429 9.59768C91.1091 8.3137 90.1326 7.68832 88.4883 7.68832C87.537 7.68832 86.7306 7.9595 86.0439 8.51294L85.6344 8.845L85.4076 8.57382C85.1305 8.24729 84.721 7.99271 84.2422 7.84328C83.7634 7.69385 82.5916 7.65511 82.0624 7.77133Z" fill="#00743F"/>
<path d="M34.0199 18.3144C30.9771 18.486 28.5516 19.0505 27.1026 19.9084C26.1262 20.495 25.7545 21.3252 25.7608 22.9025C25.7671 24.1146 25.9876 24.7234 26.5672 25.1772C26.9388 25.465 27.3861 25.5757 28.1421 25.5757C28.854 25.5702 29.3958 25.4816 30.5613 25.1772C31.9599 24.8064 32.6277 24.7123 33.8939 24.7123C34.9082 24.7068 35.0279 24.7178 35.3618 24.8341C36.0674 25.0887 36.5588 25.5425 36.7604 26.1347C36.8108 26.2896 36.8738 26.6826 36.8927 27.0147C36.9431 27.6954 36.9872 27.6401 36.3194 27.6954C36.08 27.712 35.6075 27.7508 35.2799 27.7784C34.9523 27.8116 34.5302 27.8448 34.3538 27.8614C33.5222 27.9279 33.245 27.9611 32.4828 28.0607C29.9187 28.3983 28.0287 29.1399 26.7561 30.3243C25.8994 31.1213 25.3639 32.0566 25.093 33.2354C24.9166 33.9992 24.9355 35.7979 25.1308 36.5728C25.6726 38.781 27.1908 40.1813 29.6415 40.7292C31.0086 41.0336 32.7663 41.0834 34.0514 40.8454C35.7965 40.5244 37.1006 39.7108 37.8944 38.4434L38.1275 38.0671L38.4299 38.6095C39.3686 40.2864 41.3341 41.111 44.1124 40.9838C46.7394 40.8675 48.327 39.982 48.7932 38.377C48.8436 38.1999 48.8877 37.973 48.894 37.8789C48.894 37.7903 48.9507 37.9342 49.0137 38.211C49.3098 39.4341 50.1603 40.1757 51.5904 40.4524C52.1069 40.5521 52.4786 40.5576 58.873 40.5631C66.2754 40.5631 66.099 40.5687 66.8928 40.2255C67.6362 39.9045 68.2032 39.2404 68.3859 38.4766C68.5245 37.9066 68.5056 36.8052 68.3544 36.2739C68.0709 35.2998 67.3338 34.6412 66.2439 34.3922C65.9415 34.3257 65.4186 34.3091 63.409 34.3091C62.0482 34.3091 60.9268 34.2981 60.9079 34.2815C60.8764 34.2538 61.456 33.2908 63.0436 30.7117C65.8281 26.19 67.4031 23.5833 67.5732 23.2235C67.9512 22.3934 68.0898 21.3252 67.9071 20.65C67.7118 19.9692 67.1889 19.3715 66.5148 19.0727C65.7084 18.7129 66.1494 18.735 58.747 18.7129C53.9717 18.7018 51.8801 18.7129 51.5841 18.7572C50.3493 18.9398 49.398 19.7423 49.146 20.7994C49.0389 21.2477 49.0515 22.4985 49.1712 22.9413C49.4232 23.9098 50.217 24.6182 51.3195 24.8728C51.5904 24.9337 52.1573 24.9558 53.7764 24.9558C55.1876 24.9614 55.8806 24.9835 55.8806 25.0222C55.8806 25.0555 54.5135 27.3025 52.844 30.0144C51.1746 32.7263 49.6878 35.1725 49.5366 35.4493C49.2783 35.9308 49.0326 36.6336 49.0011 36.9712C48.9822 37.2037 48.9066 37.1151 48.9003 36.8329C48.8814 36.4897 48.6798 35.9474 48.4782 35.7149C48.2388 35.4382 47.9175 35.2721 47.382 35.1449C46.8465 35.012 46.5882 34.8349 46.4937 34.5305C46.4622 34.4198 46.4244 32.3112 46.4118 29.6602C46.3866 25.1938 46.3803 24.9558 46.2543 24.3747C45.7251 21.9395 44.377 20.3179 42.0523 19.3106C40.9246 18.8291 39.7591 18.5358 38.2409 18.3698C37.5164 18.2868 35.0657 18.2591 34.0199 18.3144ZM36.8549 32.7207C36.8549 34.2759 36.8108 34.4752 36.3572 34.8681C35.6516 35.4935 34.5743 35.333 34.1585 34.5361C33.938 34.1265 33.8876 33.2742 34.0514 32.7872C34.3538 31.8574 35.0657 31.4865 36.6218 31.4367L36.8549 31.4312V32.7207Z" fill="#00743F"/>
<path d="M79.1581 18.3144C76.0901 18.4915 73.8537 18.9785 72.3795 19.7976C71.1889 20.4562 70.7542 21.386 70.8298 23.1017C70.8865 24.4023 71.1826 25.0001 71.9574 25.3709C72.2661 25.5203 72.3543 25.5369 73.041 25.5535C73.8726 25.5812 74.2254 25.5314 75.2837 25.2602C77.0099 24.8174 77.9045 24.6791 79.0951 24.6791C80.1787 24.6791 80.7835 24.8672 81.3127 25.3598C81.7789 25.7915 81.9175 26.1457 81.9238 26.9759L81.9301 27.64L80.9221 27.7286C80.3677 27.7784 79.6999 27.8337 79.4416 27.8559C79.1833 27.878 78.8873 27.9057 78.7802 27.9167C78.6794 27.9278 78.4211 27.9555 78.2132 27.9721C77.6147 28.0274 76.4996 28.2101 75.8507 28.365C73.1166 29.0126 71.3086 30.291 70.5211 32.1396C70.1116 33.1081 69.9415 34.3312 70.0549 35.5488C70.3258 38.5596 72.0708 40.303 75.3782 40.873C76.1027 40.9948 78.1124 41.0114 78.8117 40.9007C80.7709 40.5908 82.1821 39.744 83.0073 38.388L83.2152 38.0449L83.2845 38.2109C84.0972 40.1093 86.2266 41.1165 89.1434 40.9892C91.3987 40.8841 92.9485 40.2144 93.5785 39.0577C94.1013 38.0947 94.1454 36.6889 93.6667 35.903C93.4336 35.5156 93.1564 35.3385 92.5012 35.1614C92.224 35.0895 91.9153 34.9732 91.8271 34.9124C91.4806 34.6744 91.4806 34.6412 91.4554 29.5494C91.4365 24.3525 91.4428 24.4632 90.9955 23.2401C90.5923 22.1277 90.101 21.4192 89.1812 20.6057C87.8267 19.4102 86.151 18.7405 83.694 18.4195C82.7365 18.2922 80.4496 18.2424 79.1581 18.3144ZM81.949 32.7705C81.9175 34.3091 81.8734 34.5028 81.4261 34.8902C80.9158 35.3441 80.1031 35.3662 79.5676 34.94C79.24 34.6799 79.0573 34.2759 79.0196 33.728C78.944 32.6543 79.4857 31.8075 80.3866 31.5972C80.6512 31.5363 81.382 31.4478 81.7285 31.4367L81.9742 31.4312L81.949 32.7705Z" fill="#00743F"/>
<path d="M21.2924 22.5538C18.8291 23.2678 17.3361 24.7676 16.8762 27.0035C16.7439 27.6289 16.7628 30.8611 16.9077 32.6487C17.0715 34.6135 16.9896 35.4769 16.5612 36.5672C16.1643 37.5634 15.5973 38.3161 14.6523 39.113C13.9404 39.7108 13.1404 40.1923 12.1261 40.6295L11.3701 40.956L11.8111 40.9228C14.6145 40.707 16.2651 40.3417 18.029 39.5558C19.0055 39.1241 19.7363 38.6592 20.4734 38.0172C21.2042 37.3697 21.7333 36.7277 22.2373 35.8587C22.798 34.8902 23.2894 33.5066 23.4658 32.3997C23.4847 32.2447 23.5162 32.0455 23.5351 31.9569C23.8186 30.1527 23.6926 27.4408 23.2327 25.5701C22.9555 24.4189 22.0672 22.4044 21.8467 22.4154C21.8026 22.4154 21.5506 22.4763 21.2924 22.5538Z" fill="#00743F"/>
<path d="M9.14874 30.1139C8.76443 30.9497 8.61953 31.3427 8.41792 32.0954C8.04622 33.4569 7.97061 34.1322 7.97691 35.8867C7.98321 37.7353 8.22892 38.892 9.01013 40.7683L9.08574 40.951H9.95515H10.8246L10.5474 40.5746C9.85435 39.6614 9.21174 38.2389 8.91563 36.9936C8.68253 35.9974 8.61323 35.1893 8.65103 33.9495C8.70143 32.3887 8.84633 31.5751 9.36924 29.9756C9.45114 29.7044 9.51414 29.4719 9.49524 29.4608C9.48264 29.4442 9.32514 29.7376 9.14874 30.1139Z" fill="#00743F"/>
</svg>
